<svg width="29" height="28" viewBox="0 0 29 28" fill="none" xmlns="http://www.w3.org/2000/svg">
<path d="M13.6418 13.5567C15.9966 13.5567 17.9222 11.6317 17.9222 9.26338C17.9222 6.89504 16.0082 4.95837 13.6418 4.95837C11.287 4.95837 9.37305 6.88338 9.37305 9.26338C9.37305 11.6434 11.287 13.5567 13.6418 13.5567Z" fill="white"/>
<path d="M16.9824 15.2251H10.8692C8.13162 15.2251 5.91602 17.4651 5.91602 20.2068V21.0001C5.91602 22.1201 6.83242 23.0418 7.94602 23.0418H19.9056C21.0192 23.0418 21.9356 22.1201 21.9356 21.0001V20.2184C21.9356 17.4651 19.7084 15.2251 16.9824 15.2251Z" fill="white"/>
<rect x="23.2002" y="4.66663" width="2.32" height="9.33333" rx="1.16" fill="white"/>
<rect x="29" y="8.16663" width="2.33333" height="9.28" rx="1.16667" transform="rotate(90 29 8.16663)" fill="white"/>
</svg>
