<svg width="19" height="19" viewBox="0 0 19 19" fill="none" xmlns="http://www.w3.org/2000/svg">
<rect width="19" height="19" fill="#EEF7FF"/>
<path fill-rule="evenodd" clip-rule="evenodd" d="M3.95825 12.8646C4.28617 12.8646 4.552 13.1304 4.552 13.4583V15.0417C4.552 15.151 4.64061 15.2396 4.74992 15.2396H14.2499C14.3592 15.2396 14.4478 15.151 14.4478 15.0417V13.4583C14.4478 13.1304 14.7137 12.8646 15.0416 12.8646C15.3695 12.8646 15.6353 13.1304 15.6353 13.4583V15.0417C15.6353 15.8068 15.0151 16.4271 14.2499 16.4271H4.74992C3.98477 16.4271 3.3645 15.8068 3.3645 15.0417V13.4583C3.3645 13.1304 3.63033 12.8646 3.95825 12.8646Z" fill="#2267B2"/>
<path d="M8.50079 2.96875C8.09357 2.96875 7.75387 3.27997 7.71831 3.68564C7.59668 5.07321 7.57522 6.46759 7.65405 7.85796C7.45852 7.86876 7.26307 7.88128 7.0677 7.89552L5.88851 7.98148C5.43386 8.01463 5.1797 8.52158 5.42516 8.90571C6.26594 10.2215 7.3493 11.3654 8.61751 12.2764L9.08993 12.6158C9.33495 12.7918 9.66497 12.7918 9.90999 12.6158L10.3824 12.2764C11.6506 11.3654 12.734 10.2215 13.5748 8.90571C13.8202 8.52158 13.5661 8.01463 13.1114 7.98148L11.9322 7.89553C11.7369 7.88128 11.5414 7.86876 11.3459 7.85796C11.4247 6.46759 11.4032 5.07321 11.2816 3.68564C11.246 3.27997 10.9064 2.96875 10.4991 2.96875H8.50079Z" fill="#2267B2"/>
</svg>
