<svg width="12" height="11" viewBox="0 0 12 11" fill="none" xmlns="http://www.w3.org/2000/svg">
<path d="M5.35718 8.41837C5.35718 8.59698 5.4249 8.76828 5.54546 8.89458C5.66601 9.02088 5.82951 9.09184 6 9.09184C6.17049 9.09184 6.33399 9.02088 6.45454 8.89458C6.5751 8.76828 6.64282 8.59698 6.64282 8.41837C6.64282 8.23975 6.5751 8.06845 6.45454 7.94215C6.33399 7.81585 6.17049 7.7449 6 7.7449C5.82951 7.7449 5.66601 7.81585 5.54546 7.94215C5.4249 8.06845 5.35718 8.23975 5.35718 8.41837ZM5.57145 4.15306V6.73469C5.57145 6.79643 5.61966 6.84694 5.67859 6.84694H6.32141C6.38034 6.84694 6.42855 6.79643 6.42855 6.73469V4.15306C6.42855 4.09133 6.38034 4.04082 6.32141 4.04082H5.67859C5.61966 4.04082 5.57145 4.09133 5.57145 4.15306ZM11.9421 10.3265L6.37096 0.22449C6.28793 0.0743622 6.14463 0 6 0C5.85537 0 5.71073 0.0743622 5.62904 0.22449L0.0579254 10.3265C-0.106797 10.6268 0.0994409 11 0.428887 11H11.5711C11.9006 11 12.1068 10.6268 11.9421 10.3265ZM1.44936 9.93508L6 1.68227L10.5506 9.93508H1.44936Z" fill="#FF7A00"/>
</svg>
