<svg width="20" height="20" viewBox="0 0 28 25" fill="none" xmlns="http://www.w3.org/2000/svg">
<path d="M24.3197 2.70219H20.0367L18.3614 0.878212C18.1096 0.601769 17.8029 0.380883 17.4609 0.229668C17.119 0.0784517 16.7492 0.00023005 16.3753 0H10.6466C9.89001 0 9.16042 0.324263 8.64701 0.878212L6.98516 2.70219H2.70219C1.21599 2.70219 0 3.91817 0 5.40438V21.6175C0 23.1037 1.21599 24.3197 2.70219 24.3197H24.3197C25.8059 24.3197 27.0219 23.1037 27.0219 21.6175V5.40438C27.0219 3.91817 25.8059 2.70219 24.3197 2.70219ZM13.5109 20.2664C9.78193 20.2664 6.75547 17.24 6.75547 13.5109C6.75547 9.78193 9.78193 6.75547 13.5109 6.75547C17.24 6.75547 20.2664 9.78193 20.2664 13.5109C20.2664 17.24 17.24 20.2664 13.5109 20.2664Z" fill="#FE7804"/>
</svg>
