<svg width="18" height="18" viewBox="0 0 18 18" fill="none" xmlns="http://www.w3.org/2000/svg">
<path d="M9 0C4.02991 0 0 4.02991 0 9C0 13.9701 4.02991 18 9 18C13.9701 18 18 13.9701 18 9C18 4.02991 13.9701 0 9 0ZM8.35714 4.66071C8.35714 4.57232 8.42946 4.5 8.51786 4.5H9.48214C9.57054 4.5 9.64286 4.57232 9.64286 4.66071V10.125C9.64286 10.2134 9.57054 10.2857 9.48214 10.2857H8.51786C8.42946 10.2857 8.35714 10.2134 8.35714 10.125V4.66071ZM9 13.5C8.74766 13.4948 8.5074 13.391 8.33076 13.2107C8.15413 13.0304 8.0552 12.7881 8.0552 12.5357C8.0552 12.2833 8.15413 12.041 8.33076 11.8607C8.5074 11.6804 8.74766 11.5766 9 11.5714C9.25234 11.5766 9.4926 11.6804 9.66924 11.8607C9.84587 12.041 9.9448 12.2833 9.9448 12.5357C9.9448 12.7881 9.84587 13.0304 9.66924 13.2107C9.4926 13.391 9.25234 13.4948 9 13.5Z" fill="#EF3B3B"/>
</svg>
