<svg width="13" height="13" viewBox="0 0 13 13" fill="none" xmlns="http://www.w3.org/2000/svg">
<path d="M13 12.0698L10.014 9.08373C10.9 7.96041 11.3234 6.54097 11.1974 5.11579C11.0715 3.69062 10.4058 2.36742 9.3364 1.41691C8.26705 0.466392 6.87493 -0.0396078 5.44482 0.00242357C4.0147 0.0444549 2.6547 0.631341 1.64302 1.64302C0.631341 2.6547 0.0444549 4.0147 0.00242357 5.44482C-0.0396078 6.87493 0.466392 8.26705 1.41691 9.3364C2.36742 10.4058 3.69062 11.0715 5.11579 11.1974C6.54097 11.3234 7.96041 10.9 9.08373 10.014L12.0698 13L13 12.0698ZM5.62731 9.90343C4.78158 9.90343 3.95483 9.65264 3.25163 9.18278C2.54842 8.71291 2.00034 8.04507 1.67669 7.26371C1.35304 6.48235 1.26836 5.62257 1.43336 4.79308C1.59835 3.9636 2.00561 3.20167 2.60364 2.60364C3.20167 2.00561 3.9636 1.59835 4.79308 1.43336C5.62257 1.26836 6.48235 1.35304 7.26371 1.67669C8.04507 2.00034 8.71291 2.54842 9.18278 3.25163C9.65264 3.95483 9.90343 4.78158 9.90343 5.62731C9.90204 6.76098 9.45107 7.84782 8.64945 8.64945C7.84782 9.45107 6.76098 9.90204 5.62731 9.90343Z" fill="#AEAEB2"/>
</svg>
