<svg width="32" height="32" viewBox="0 0 32 32" fill="none" xmlns="http://www.w3.org/2000/svg">
<rect width="28" height="28" rx="5" fill="#EDF3FF"/>
<path d="M23.6579 30.2068C24.5044 30.1544 25.3667 30.1851 26.195 30.0324C28.1504 29.6721 29.6536 27.8639 29.7138 25.8642C29.7513 24.6136 29.7229 23.3606 29.7343 22.1088C29.74 21.492 30.0661 21.1044 30.5773 21.0725C31.0682 21.0417 31.5215 21.3438 31.5249 21.8443C31.5386 23.6171 31.7681 25.4093 31.3488 27.1582C30.6705 29.9811 28.1822 31.9386 25.2883 31.9888C24.0976 32.0093 22.9069 31.9979 21.7161 31.991C21.0662 31.9876 20.672 31.6251 20.6788 31.0642C20.6845 30.5215 21.064 30.1749 21.6991 30.1623C22.3513 30.1498 23.0035 30.1601 23.6556 30.1601C23.6556 30.1749 23.6568 30.1908 23.6579 30.2068Z" fill="#2268B2"/>
<path d="M0.70469 23.9874C0.703554 23.3467 0.699009 22.7071 0.705826 22.0664C0.712643 21.4542 1.08191 21.062 1.62728 21.0699C2.16016 21.0779 2.50329 21.4496 2.50783 22.0573C2.51692 23.2099 2.49875 24.3625 2.51352 25.5151C2.54419 27.8455 4.03034 29.6787 6.26069 30.0789C6.86742 30.1872 7.50369 30.1473 8.12633 30.1553C8.94894 30.1667 9.77154 30.1427 10.593 30.1644C11.3611 30.1849 11.8337 30.8587 11.4792 31.4561C11.3395 31.691 11.0077 31.9577 10.7623 31.9577C9.09323 31.9577 7.39689 32.0638 5.76077 31.8084C2.86233 31.3546 0.744457 28.6789 0.70469 25.7374C0.697873 25.1537 0.70469 24.5711 0.70469 23.9874Z" fill="#2268B2"/>
<path d="M29.6833 8.91426C29.6833 8.17549 29.7742 7.42189 29.6663 6.69908C29.3209 4.39041 27.4609 2.86954 25.034 2.8399C23.8853 2.82622 22.7377 2.85016 21.5891 2.82964C20.8835 2.8171 20.4324 2.13305 20.7755 1.56072C20.921 1.31789 21.2675 1.05453 21.5288 1.04883C23.0013 1.01576 24.4886 0.934819 25.9452 1.09899C29.197 1.4661 31.4853 4.08031 31.5535 7.35121C31.5785 8.53119 31.5649 9.71346 31.5569 10.8934C31.5524 11.5467 31.1876 11.9492 30.6366 11.9446C30.0878 11.94 29.7401 11.5365 29.7322 10.8763C29.7254 10.2219 29.731 9.56753 29.731 8.91312C29.7163 8.91426 29.6992 8.91426 29.6833 8.91426Z" fill="#2268B2"/>
<path d="M0.600098 8.9474C0.717126 7.8495 0.7069 6.71967 0.973906 5.66054C1.66131 2.94486 4.1598 1.06372 6.95712 1.0261C8.14785 1.01014 9.33859 1.01812 10.5293 1.02268C11.1724 1.02496 11.5883 1.39092 11.5883 1.93588C11.5883 2.48312 11.1826 2.83313 10.5271 2.83883C9.30791 2.84795 8.08536 2.79551 6.87077 2.86961C4.29728 3.02808 2.53959 4.93088 2.51232 7.51887C2.49982 8.68518 2.52254 9.85262 2.50323 11.0189C2.49073 11.7782 1.70107 12.2308 1.13525 11.7851C0.913688 11.6106 0.747803 11.2526 0.721671 10.9631C0.661452 10.2995 0.702355 9.62689 0.702355 8.9588C0.669406 8.95538 0.634184 8.95082 0.600098 8.9474Z" fill="#2268B2"/>
<path d="M16.117 24.6931C14.1787 24.6988 12.4846 24.0729 11.0678 22.7276C10.8064 22.479 10.586 22.1758 10.7212 21.8315C10.8292 21.5567 11.0587 21.2717 11.3109 21.128C11.62 20.9525 11.9733 21.0733 12.2426 21.3344C12.8618 21.9363 13.5628 22.414 14.4036 22.6307C16.4488 23.1562 18.3303 22.9009 19.9381 21.4062C20.4084 20.9696 20.964 20.9547 21.3288 21.3503C21.6923 21.7448 21.6333 22.3046 21.1731 22.7424C19.754 24.09 18.0542 24.7045 16.117 24.6931Z" fill="#2268B2"/>
<path d="M17.0328 13.9101C17.0328 14.805 17.051 15.7 17.0283 16.595C16.9942 18.0109 15.85 19.1681 14.4639 19.2229C13.8719 19.2457 13.4674 18.9321 13.4129 18.4077C13.3595 17.8981 13.7231 17.4911 14.2991 17.4147C14.949 17.3292 15.224 17.0168 15.2263 16.3248C15.2319 14.6055 15.2251 12.8874 15.2308 11.1682C15.2319 10.5833 15.516 10.2162 15.9887 10.1512C16.5693 10.0714 17.0249 10.4716 17.0328 11.0986C17.0442 12.0358 17.0362 12.9741 17.0362 13.9112C17.0351 13.9101 17.034 13.9101 17.0328 13.9101Z" fill="#2268B2"/>
<path d="M9.78518 12.8419C9.78518 12.2582 9.77609 11.6745 9.78745 11.0919C9.79995 10.5013 10.1681 10.1319 10.7055 10.1433C11.2157 10.1536 11.5826 10.5321 11.5872 11.093C11.5974 12.2741 11.5974 13.4553 11.5872 14.6364C11.5826 15.2076 11.177 15.6112 10.6635 15.5963C10.1635 15.5827 9.79882 15.1939 9.78745 14.6353C9.77723 14.0367 9.78632 13.4393 9.78518 12.8419Z" fill="#2268B2"/>
<path d="M22.4799 12.8578C22.4799 13.4415 22.4867 14.0241 22.4776 14.6078C22.4685 15.187 22.0924 15.5917 21.5789 15.5963C21.0676 15.6008 20.6813 15.1972 20.6767 14.6181C20.6676 13.4518 20.6676 12.2843 20.6767 11.118C20.6813 10.5172 21.0358 10.1444 21.5687 10.1421C22.1118 10.1398 22.4731 10.5331 22.4799 11.1499C22.4844 11.72 22.4799 12.2889 22.4799 12.8578Z" fill="#2268B2"/>
</svg>
