<svg width="29" height="33" viewBox="0 0 29 33" fill="none" xmlns="http://www.w3.org/2000/svg">
<path d="M9.15174 24.6306L9.24604 24.5973C10.6423 28.5522 13.1628 31.4713 17.1784 32.9C17.3569 32.9 17.5345 32.9 17.7127 32.8993C17.7392 32.8862 17.7646 32.874 17.7895 32.862C17.8327 32.8412 17.8745 32.821 17.9182 32.7985C18.2986 32.6016 18.4826 32.2351 18.415 31.808C18.3526 31.4162 18.0371 31.0802 17.6546 31.0546C17.6546 31.0546 17.6546 31.0546 17.6546 31.0546L17.6612 30.9548L9.15174 24.6306ZM9.15174 24.6306L9.24603 24.5973C8.49844 22.4804 8.73507 20.3816 10.0568 18.5192L10.0569 18.5192L9.15174 24.6306ZM19.5342 20.4561L19.5342 20.4561C18.9593 18.2563 17.5523 16.8225 15.3342 16.3651C15.3342 16.3651 15.3342 16.3651 15.3342 16.3651L19.5342 20.4561ZM19.5342 20.4561C19.6277 20.8131 19.6652 21.1877 19.6862 21.5722C19.6946 21.7262 19.7004 21.8839 19.7062 22.0427C19.7148 22.2747 19.7234 22.5088 19.7403 22.7365L19.7403 22.7365M19.5342 20.4561L19.7403 22.7365M19.7403 22.7365C19.8236 23.8514 20.32 24.7302 21.2934 25.2847C23.0269 26.2728 25.2179 25.1953 25.5618 23.1876L25.5618 23.1875M19.7403 22.7365L25.5618 23.1875M25.5618 23.1875C25.763 22.011 25.6097 20.8368 25.3665 19.6972C24.6086 16.1396 22.7647 13.313 19.6088 11.4706L19.5584 11.5569M25.5618 23.1875L19.5584 11.5569M19.5584 11.5569L19.6088 11.4706C15.4271 9.02926 10.0653 9.75908 6.59726 13.1737L6.59726 13.1737M19.5584 11.5569L6.59726 13.1737M6.59726 13.1737C2.20564 17.4982 1.70138 24.34 5.41327 29.2607L5.41334 29.2608M6.59726 13.1737L5.41334 29.2608M5.41334 29.2608C5.63225 29.5503 5.79201 29.8151 5.72611 30.1505C5.6487 30.5432 5.4305 30.8083 5.04926 30.9025L5.41334 29.2608ZM4.31879 12.7741L4.39602 12.8376C1.12564 16.8134 0.306826 21.3354 1.79708 26.2768C2.26832 27.8384 3.05044 29.2478 4.05287 30.5352C4.18702 30.7073 4.33604 30.8224 4.49853 30.8833L4.31879 12.7741ZM4.31879 12.7741L4.39602 12.8376C6.71463 10.0188 9.75195 8.4349 13.3965 8.22308C18.4559 7.92923 22.3263 10.0972 25.1232 14.2801C26.8266 16.8277 27.5434 19.6957 27.4712 22.7646C27.4119 25.2872 25.419 27.3488 22.9103 27.5083C20.5304 27.6597 18.3197 25.8381 17.9642 23.3853L17.9642 23.3853M4.31879 12.7741L17.9642 23.3853M17.9642 23.3853C17.9151 23.048 17.9012 22.7047 17.8898 22.3556C17.8889 22.3262 17.888 22.2967 17.887 22.2671C17.8769 21.9482 17.8666 21.6244 17.8306 21.3037C17.5817 19.0917 15.2863 17.5559 13.2521 18.2819L13.2521 18.2819M17.9642 23.3853L13.2521 18.2819M13.2521 18.2819C11.8237 18.792 11.1008 19.9358 10.8076 21.3522M13.2521 18.2819L10.8076 21.3522M10.8076 21.3522C10.5216 22.733 10.8588 24.032 11.447 25.2516M10.8076 21.3522L11.447 25.2516M11.447 25.2516C12.5054 27.4491 14.1033 29.1686 16.1286 30.4851M11.447 25.2516L16.1286 30.4851M16.1286 30.4851C16.1286 30.4851 16.1286 30.4851 16.1286 30.4851L16.1831 30.4013L16.1286 30.4851Z" fill="#2268B2" stroke="white" stroke-width="0.2"/>
<path d="M21.7524 21.7598L21.7524 21.7598C21.7604 22.0963 21.8665 22.3622 22.0339 22.5403C22.2003 22.7174 22.434 22.8152 22.7148 22.8054C22.9932 22.7955 23.2118 22.6862 23.3613 22.5041C23.5121 22.3205 23.5996 22.0541 23.5955 21.7204C23.5744 20.0271 23.1403 18.4493 22.3137 16.9778C19.8448 12.5863 14.4179 10.9457 10.0688 13.2555C6.0074 15.4132 3.77118 20.5152 5.64918 25.356C6.6795 28.0105 8.27932 30.2916 10.1803 32.3798C10.2738 32.4825 10.3873 32.5699 10.5114 32.6562C10.5549 32.6863 10.6007 32.717 10.6474 32.7483C10.7207 32.7974 10.796 32.8479 10.8672 32.8998H10.8676H10.8685H10.8694H10.8702H10.8711H10.872H10.8729H10.8737H10.8746H10.8755H10.8764H10.8772H10.8781H10.879H10.8799H10.8807H10.8816H10.8825H10.8834H10.8842H10.8851H10.886H10.8869H10.8877H10.8886H10.8895H10.8904H10.8912H10.8921H10.893H10.8939H10.8947H10.8956H10.8965H10.8973H10.8982H10.8991H10.9H10.9008H10.9017H10.9026H10.9035H10.9043H10.9052H10.9061H10.907H10.9078H10.9087H10.9096H10.9105H10.9113H10.9122H10.9131H10.9139H10.9148H10.9157H10.9166H10.9174H10.9183H10.9192H10.9201H10.9209H10.9218H10.9227H10.9236H10.9244H10.9253H10.9262H10.9271H10.9279H10.9288H10.9297H10.9305H10.9314H10.9323H10.9332H10.934H10.9349H10.9358H10.9367H10.9375H10.9384H10.9393H10.9402H10.941H10.9419H10.9428H10.9436H10.9445H10.9454H10.9463H10.9471H10.948H10.9489H10.9498H10.9506H10.9515H10.9524H10.9532H10.9541H10.955H10.9559H10.9567H10.9576H10.9585H10.9594H10.9602H10.9611H10.962H10.9629H10.9637H10.9646H10.9655H10.9663H10.9672H10.9681H10.969H10.9698H10.9707H10.9716H10.9725H10.9733H10.9742H10.9751H10.9759H10.9768H10.9777H10.9786H10.9794H10.9803H10.9812H10.9821H10.9829H10.9838H10.9847H10.9856H10.9864H10.9873H10.9882H10.989H10.9899H10.9908H10.9917H10.9925H10.9934H10.9943H10.9952H10.996H10.9969H10.9978H10.9986H10.9995H11.0004H11.0013H11.0021H11.003H11.0039H11.0048H11.0056H11.0065H11.0074H11.0082H11.0091H11.01H11.0109H11.0117H11.0126H11.0135H11.0144H11.0152H11.0161H11.017H11.0178H11.0187H11.0196H11.0205H11.0213H11.0222H11.0231H11.024H11.0248H11.0257H11.0266H11.0274H11.0283H11.0292H11.0301H11.0309H11.0318H11.0327H11.0336H11.0344H11.0353H11.0362H11.037H11.0379H11.0388H11.0397H11.0405H11.0414H11.0423H11.0431H11.044H11.0449H11.0458H11.0466H11.0475H11.0484H11.0493H11.0501H11.051H11.0519H11.0527H11.0536H11.0545H11.0554H11.0562H11.0571H11.058H11.0589H11.0597H11.0606H11.0615H11.0623H11.0632H11.0641H11.065H11.0658H11.0667H11.0676H11.0685H11.0693H11.0702H11.0711H11.0719H11.0728H11.0737H11.0746H11.0754H11.0763H11.0772H11.0781H11.0789H11.0798H11.0807H11.0815H11.0824H11.0833H11.0842H11.085H11.0859H11.0868H11.0877H11.0885H11.0894H11.0903H11.0911H11.092H11.0929H11.0938H11.0946H11.0955H11.0964H11.0973H11.0981H11.099H11.0999H11.1007H11.1016H11.1025H11.1034H11.1042H11.1051H11.106H11.1069H11.1077H11.1086H11.1095H11.1103H11.1112H11.1121H11.113H11.1138H11.1147H11.1156H11.1165H11.1173H11.1182H11.1191H11.1199H11.1208H11.1217H11.1226H11.1234H11.1243H11.1252H11.1261H11.1269H11.1278H11.1287H11.1295H11.1304H11.1313H11.1322H11.133H11.1339H11.1348H11.1357H11.1365H11.1374H11.1383H11.1391H11.14H11.1409H11.1418H11.1426H11.1435H11.1444H11.1453H11.1461H11.147H11.1479H11.1487H11.1496H11.1505H11.1514H11.1522H11.1531H11.154H11.1549H11.1557H11.1566H11.1575H11.1584H11.1592H11.1601H11.161H11.1618H11.1627H11.1636H11.1645H11.1653H11.1662H11.1671H11.168H11.1688H11.1697H11.1706H11.1714H11.1723H11.1732H11.1741H11.1749H11.1758H11.1767H11.1776H11.1784H11.1793H11.1802H11.1811H11.1819H11.1828H11.1837H11.1845H11.1854H11.1863H11.1872H11.188H11.1889H11.1898H11.1907H11.1915H11.1924H11.1933H11.1942H11.195H11.1959H11.1968H11.1977H11.1985H11.1994H11.2003H11.2011H11.202H11.2029H11.2038H11.2046H11.2055H11.2064H11.2073H11.2081H11.209H11.2099H11.2108H11.2116H11.2125H11.2134H11.2143H11.2151H11.216H11.2169H11.2177H11.2186H11.2195H11.2204H11.2212H11.2221H11.223H11.2239H11.2247H11.2256H11.2265H11.2274H11.2282H11.2291H11.23H11.2309H11.2317H11.2326H11.2335H11.2344H11.2352H11.2361H11.237H11.2378H11.2387H11.2396H11.2405H11.2413H11.2422H11.2431H11.244H11.2448H11.2457H11.2466H11.2475H11.2483H11.2492H11.2501H11.251H11.2518H11.252C11.3044 32.8663 11.3609 32.8336 11.4148 32.8024C11.4503 32.7818 11.4848 32.7619 11.5164 32.7428C11.609 32.6865 11.6896 32.6302 11.7524 32.562C11.9222 32.3772 11.9917 32.1563 11.9712 31.9271C11.9505 31.6962 11.8374 31.4508 11.6311 31.2252C9.99296 29.4339 8.56802 27.4915 7.58507 25.2402L7.58506 25.2402C6.55971 22.8908 6.51955 20.5449 7.68207 18.2286L21.7524 21.7598ZM21.7524 21.7598C21.6971 19.484 20.8647 17.5479 19.1984 16.0067M21.7524 21.7598L19.1984 16.0067M19.1984 16.0067C15.6035 12.6802 9.91178 13.7848 7.68207 18.2286L19.1984 16.0067Z" fill="#2268B2" stroke="white" stroke-width="0.2"/>
<path d="M3.17056 11.0445L3.17057 11.0445C7.77286 5.91129 15.055 4.53378 21.0408 7.65433C23.3834 8.87516 25.2817 10.6004 26.7713 12.7895C27.1125 13.2905 27.6706 13.3986 28.1043 13.0952C28.5347 12.7934 28.6349 12.2343 28.3006 11.7546C24.8872 6.86345 20.2261 4.31432 14.2456 4.10991C14.0239 4.12864 13.7993 4.14425 13.5727 4.15999C13.0577 4.19577 12.533 4.23223 12.0112 4.30758L12.0111 4.30759C11.2899 4.41127 10.5691 4.55332 9.87125 4.75321L9.87123 4.75322C5.81018 5.91546 2.61384 8.2911 0.248927 11.8091L3.17056 11.0445ZM3.17056 11.0445C2.78305 11.477 2.43457 11.9466 2.0894 12.4118C1.98124 12.5576 1.87341 12.7029 1.7648 12.8465L1.84456 12.9069M3.17056 11.0445L1.84456 12.9069M1.84456 12.9069L1.76479 12.8466C1.63228 13.0218 1.48369 13.1397 1.32153 13.2034C1.15988 13.2669 0.977922 13.2793 0.773493 13.2329L0.773389 13.2328M1.84456 12.9069L0.773389 13.2328M0.773389 13.2328C0.401275 13.1486 0.147337 12.8988 0.107406 12.5303M0.773389 13.2328L0.107406 12.5303M0.107406 12.5303L0.00798766 12.541M0.107406 12.5303L0.00798766 12.541M0.00798766 12.541L0.107426 12.5304C0.0816158 12.288 0.127268 11.9906 0.248863 11.8092L0.00798766 12.541Z" fill="#2268B2" stroke="white" stroke-width="0.2"/>
<path d="M25.2131 6.27449L25.2131 6.27446C25.0397 6.13601 24.8668 5.9947 24.6934 5.85291C24.188 5.43969 23.6777 5.02247 23.134 4.66056L23.0786 4.7438L23.134 4.66055C20.2406 2.73461 17.0432 1.82727 13.5805 1.98665L13.5805 1.98666C9.87224 2.15816 6.60228 3.49962 3.76814 5.9141L3.76809 5.91414C3.70184 5.97065 3.64075 6.0249 3.58052 6.07839C3.50774 6.14302 3.43622 6.20654 3.35838 6.27156L3.35823 6.27169C2.92974 6.63105 2.37353 6.59822 2.03565 6.21424C1.69158 5.82293 1.71841 5.26507 2.1315 4.88543L2.13151 4.88543C3.71885 3.42652 5.50536 2.28375 7.49401 1.46106L7.49402 1.46105C9.67298 0.559363 11.9409 0.110393 14.7349 0.100003C18.8978 0.167828 22.9191 1.73662 26.3667 4.81404C26.66 5.0762 26.8192 5.36598 26.7539 5.74063C26.6884 6.1146 26.4531 6.3655 26.1631 6.46588C25.8723 6.56654 25.5184 6.51842 25.2131 6.27449Z" fill="#2268B2" stroke="white" stroke-width="0.2"/>
<path d="M17.3682 29.3274L17.3682 29.3274C18.4807 30.2282 19.736 30.8051 21.0778 30.8788C21.4277 30.8925 21.7095 30.8007 21.9056 30.6441C22.1009 30.4881 22.2176 30.2628 22.2312 29.994L22.2312 29.9939C22.2579 29.4795 21.8642 29.055 21.2944 29.0273C20.5868 28.993 19.9125 28.8154 19.3075 28.4399L19.3603 28.355L19.3075 28.4399C16.6873 26.8135 15.3057 24.4309 15.1384 21.3389M17.3682 29.3274L13.2934 21.3549C13.2817 21.0285 13.3715 20.7634 13.5263 20.5795C13.6804 20.3965 13.9048 20.2866 14.1793 20.2791L14.1794 20.2791C14.4567 20.2713 14.6841 20.3726 14.8482 20.5531C15.0136 20.7352 15.1202 21.0044 15.1384 21.3389M17.3682 29.3274C14.8405 27.2817 13.4118 24.6541 13.2934 21.3549L17.3682 29.3274ZM15.1384 21.3389L15.2383 21.3335L15.1384 21.3389Z" fill="#2268B2" stroke="white" stroke-width="0.2"/>
</svg>
