<svg width="35" height="35" viewBox="0 0 35 35" fill="none" xmlns="http://www.w3.org/2000/svg">
<rect width="35" height="35" rx="17.5" fill="#FDCC14"/>
<path d="M24.04 18.55C23.62 18.96 23.38 19.55 23.44 20.18C23.53 21.26 24.52 22.05 25.6 22.05H27.5V23.24C27.5 25.31 25.81 27 23.74 27H13.63C13.94 26.74 14.21 26.42 14.42 26.06C14.79 25.46 15 24.75 15 24C15 21.79 13.21 20 11 20C10.06 20 9.19 20.33 8.5 20.88V16.51C8.5 14.44 10.19 12.75 12.26 12.75H23.74C25.81 12.75 27.5 14.44 27.5 16.51V17.95H25.48C24.92 17.95 24.41 18.17 24.04 18.55Z" stroke="#00519F" stroke-width="1.5" stroke-linecap="round" stroke-linejoin="round"/>
<path d="M8.5 17.4101V12.8401C8.5 11.6501 9.23 10.5901 10.34 10.1701L18.28 7.17006C19.52 6.70006 20.85 7.62009 20.85 8.95009V12.7501" stroke="#00519F" stroke-width="1.5" stroke-linecap="round" stroke-linejoin="round"/>
<path d="M28.5588 18.9702V21.0302C28.5588 21.5802 28.1188 22.0302 27.5588 22.0502H25.5988C24.5188 22.0502 23.5288 21.2602 23.4388 20.1802C23.3788 19.5502 23.6188 18.9602 24.0388 18.5502C24.4088 18.1702 24.9188 17.9502 25.4788 17.9502H27.5588C28.1188 17.9702 28.5588 18.4202 28.5588 18.9702Z" stroke="#00519F" stroke-width="1.5" stroke-linecap="round" stroke-linejoin="round"/>
<path d="M13 17H20" stroke="#00519F" stroke-width="1.5" stroke-linecap="round" stroke-linejoin="round"/>
<path d="M15 24C15 24.75 14.79 25.46 14.42 26.06C14.21 26.42 13.94 26.74 13.63 27C12.93 27.63 12.01 28 11 28C9.54 28 8.27 27.22 7.58 26.06C7.21 25.46 7 24.75 7 24C7 22.74 7.58 21.61 8.5 20.88C9.19 20.33 10.06 20 11 20C13.21 20 15 21.79 15 24Z" stroke="#00519F" stroke-width="1.5" stroke-miterlimit="10" stroke-linecap="round" stroke-linejoin="round"/>
<path d="M9.44141 23.9995L10.4314 24.9895L12.5614 23.0195" stroke="#00519F" stroke-width="1.5" stroke-linecap="round" stroke-linejoin="round"/>
</svg>
